<svg width="1800" height="1000" viewBox="0 0 1800 1000" fill="none" xmlns="http://www.w3.org/2000/svg">
<rect width="1800" height="1000" fill="#FC4C4C"/>
<ellipse cx="589" cy="448" rx="139" ry="122" fill="#125370"/>
<ellipse cx="701" cy="498.5" rx="139" ry="121.5" fill="#1A9AD0"/>
<ellipse cx="589" cy="554" rx="139" ry="122" fill="#DA0EB9"/>
<path d="M931.404 489.354V575.34C927.889 579.344 922.518 583.641 915.291 588.23C908.162 592.82 899.031 596.775 887.898 600.096C876.766 603.318 863.484 604.93 848.055 604.93C834.09 604.93 821.395 602.684 809.969 598.191C798.543 593.602 788.729 586.912 780.525 578.123C772.322 569.236 765.975 558.396 761.482 545.604C757.088 532.811 754.891 518.162 754.891 501.658V489.061C754.891 472.557 757.088 457.908 761.482 445.115C765.877 432.322 772.078 421.531 780.086 412.742C788.094 403.855 797.615 397.117 808.65 392.527C819.686 387.938 831.893 385.643 845.271 385.643C864.314 385.643 879.891 388.719 892 394.871C904.109 400.926 913.289 409.324 919.539 420.066C925.887 430.809 929.793 443.162 931.258 457.127H885.262C884.285 449.998 882.332 443.846 879.402 438.67C876.57 433.494 872.518 429.539 867.244 426.805C861.971 423.973 855.135 422.557 846.736 422.557C839.998 422.557 833.895 423.973 828.426 426.805C823.055 429.539 818.514 433.689 814.803 439.256C811.092 444.822 808.26 451.756 806.307 460.057C804.354 468.26 803.377 477.83 803.377 488.768V501.658C803.377 512.596 804.354 522.215 806.307 530.516C808.357 538.816 811.336 545.75 815.242 551.316C819.148 556.785 824.08 560.936 830.037 563.768C836.092 566.6 843.123 568.016 851.131 568.016C857.381 568.016 862.654 567.527 866.951 566.551C871.248 565.477 874.764 564.158 877.498 562.596C880.232 560.936 882.283 559.422 883.65 558.055V522.605H845.711V489.354H931.404ZM1135.9 489.354V575.34C1132.38 579.344 1127.01 583.641 1119.78 588.23C1112.65 592.82 1103.52 596.775 1092.39 600.096C1081.26 603.318 1067.98 604.93 1052.55 604.93C1038.58 604.93 1025.89 602.684 1014.46 598.191C1003.04 593.602 993.221 586.912 985.018 578.123C976.814 569.236 970.467 558.396 965.975 545.604C961.58 532.811 959.383 518.162 959.383 501.658V489.061C959.383 472.557 961.58 457.908 965.975 445.115C970.369 432.322 976.57 421.531 984.578 412.742C992.586 403.855 1002.11 397.117 1013.14 392.527C1024.18 387.938 1036.38 385.643 1049.76 385.643C1068.81 385.643 1084.38 388.719 1096.49 394.871C1108.6 400.926 1117.78 409.324 1124.03 420.066C1130.38 430.809 1134.29 443.162 1135.75 457.127H1089.75C1088.78 449.998 1086.82 443.846 1083.89 438.67C1081.06 433.494 1077.01 429.539 1071.74 426.805C1066.46 423.973 1059.63 422.557 1051.23 422.557C1044.49 422.557 1038.39 423.973 1032.92 426.805C1027.55 429.539 1023.01 433.689 1019.29 439.256C1015.58 444.822 1012.75 451.756 1010.8 460.057C1008.85 468.26 1007.87 477.83 1007.87 488.768V501.658C1007.87 512.596 1008.85 522.215 1010.8 530.516C1012.85 538.816 1015.83 545.75 1019.73 551.316C1023.64 556.785 1028.57 560.936 1034.53 563.768C1040.58 566.6 1047.62 568.016 1055.62 568.016C1061.87 568.016 1067.15 567.527 1071.44 566.551C1075.74 565.477 1079.26 564.158 1081.99 562.596C1084.72 560.936 1086.78 559.422 1088.14 558.055V522.605H1050.2V489.354H1135.9ZM1285.31 388.719H1333.06V528.758C1333.06 545.359 1329.55 559.324 1322.52 570.652C1315.58 581.98 1305.92 590.525 1293.51 596.287C1281.11 602.049 1266.76 604.93 1250.45 604.93C1234.04 604.93 1219.59 602.049 1207.09 596.287C1194.69 590.525 1184.92 581.98 1177.79 570.652C1170.76 559.324 1167.24 545.359 1167.24 528.758V388.719H1215.14V528.758C1215.14 537.938 1216.51 545.457 1219.25 551.316C1222.08 557.078 1226.13 561.326 1231.4 564.061C1236.68 566.697 1243.03 568.016 1250.45 568.016C1257.87 568.016 1264.17 566.697 1269.34 564.061C1274.62 561.326 1278.57 557.078 1281.21 551.316C1283.94 545.457 1285.31 537.938 1285.31 528.758V388.719Z" fill="#FFE7E7"/>
<path d="M931.404 489.354H932.404V488.354H931.404V489.354ZM931.404 575.34L932.156 576L932.404 575.717V575.34H931.404ZM915.291 588.23L914.755 587.386L914.75 587.39L915.291 588.23ZM887.898 600.096L888.176 601.056L888.184 601.054L887.898 600.096ZM809.969 598.191L809.596 599.119L809.603 599.122L809.969 598.191ZM780.525 578.123L779.791 578.801L779.794 578.805L780.525 578.123ZM761.482 545.604L760.537 545.928L760.539 545.935L761.482 545.604ZM780.086 412.742L780.825 413.416L780.829 413.412L780.086 412.742ZM892 394.871L891.547 395.763L891.553 395.766L892 394.871ZM919.539 420.066L918.675 420.569L918.678 420.575L919.539 420.066ZM931.258 457.127V458.127H932.368L932.252 457.023L931.258 457.127ZM885.262 457.127L884.271 457.263L884.389 458.127H885.262V457.127ZM879.402 438.67L878.525 439.15L878.529 439.156L878.532 439.163L879.402 438.67ZM867.244 426.805L866.771 427.686L866.777 427.689L866.784 427.692L867.244 426.805ZM828.426 426.805L828.879 427.696L828.886 427.693L828.426 426.805ZM806.307 460.057L807.279 460.288L807.28 460.286L806.307 460.057ZM806.307 530.516L805.333 530.745L805.336 530.755L806.307 530.516ZM815.242 551.316L814.424 551.891L814.428 551.898L815.242 551.316ZM830.037 563.768L829.608 564.671L829.613 564.673L830.037 563.768ZM866.951 566.551L867.173 567.526L867.183 567.524L867.194 567.521L866.951 566.551ZM877.498 562.596L877.994 563.464L878.006 563.457L878.017 563.45L877.498 562.596ZM883.65 558.055L884.357 558.762L884.65 558.469V558.055H883.65ZM883.65 522.605H884.65V521.605H883.65V522.605ZM845.711 522.605H844.711V523.605H845.711V522.605ZM845.711 489.354V488.354H844.711V489.354H845.711ZM930.404 489.354V575.34H932.404V489.354H930.404ZM930.653 574.68C927.226 578.583 921.944 582.821 914.755 587.386L915.827 589.075C923.092 584.461 928.551 580.105 932.156 576L930.653 574.68ZM914.75 587.39C907.723 591.914 898.686 595.835 887.613 599.137L888.184 601.054C899.376 597.716 908.601 593.727 915.832 589.071L914.75 587.39ZM887.62 599.135C876.602 602.325 863.419 603.93 848.055 603.93V605.93C863.549 605.93 876.929 604.312 888.176 601.056L887.62 599.135ZM848.055 603.93C834.198 603.93 821.629 601.701 810.335 597.261L809.603 599.122C821.16 603.666 833.982 605.93 848.055 605.93V603.93ZM810.342 597.263C799.048 592.727 789.357 586.12 781.256 577.441L779.794 578.805C788.1 587.704 798.038 594.476 809.596 599.119L810.342 597.263ZM781.26 577.445C773.16 568.67 766.878 557.952 762.426 545.272L760.539 545.935C765.071 558.841 771.484 569.803 779.791 578.801L781.26 577.445ZM762.428 545.279C758.076 532.61 755.891 518.075 755.891 501.658H753.891C753.891 518.249 756.099 533.011 760.537 545.928L762.428 545.279ZM755.891 501.658V489.061H753.891V501.658H755.891ZM755.891 489.061C755.891 472.644 758.076 458.108 762.428 445.44L760.537 444.79C756.099 457.708 753.891 472.47 753.891 489.061H755.891ZM762.428 445.44C766.784 432.759 772.921 422.091 780.825 413.416L779.347 412.069C771.235 420.972 764.969 431.886 760.537 444.79L762.428 445.44ZM780.829 413.412C788.737 404.635 798.136 397.983 809.034 393.451L808.266 391.604C797.094 396.251 787.45 403.076 779.343 412.073L780.829 413.412ZM809.034 393.451C819.934 388.917 832.009 386.643 845.271 386.643V384.643C831.776 384.643 819.437 386.958 808.266 391.604L809.034 393.451ZM845.271 386.643C864.217 386.643 879.623 389.704 891.547 395.763L892.453 393.98C880.158 387.733 864.412 384.643 845.271 384.643V386.643ZM891.553 395.766C903.504 401.741 912.531 410.01 918.675 420.569L920.403 419.564C914.047 408.638 904.715 400.11 892.447 393.977L891.553 395.766ZM918.678 420.575C924.944 431.179 928.812 443.391 930.263 457.231L932.252 457.023C930.774 442.933 926.829 430.438 920.4 419.558L918.678 420.575ZM931.258 456.127H885.262V458.127H931.258V456.127ZM886.252 456.991C885.262 449.762 883.276 443.484 880.273 438.177L878.532 439.163C881.388 444.208 883.308 450.234 884.271 457.263L886.252 456.991ZM880.28 438.19C877.352 432.839 873.153 428.742 867.704 425.917L866.784 427.692C871.882 430.336 875.789 434.15 878.525 439.15L880.28 438.19ZM867.717 425.924C862.252 422.988 855.237 421.557 846.736 421.557V423.557C855.032 423.557 861.69 424.957 866.771 427.686L867.717 425.924ZM846.736 421.557C839.853 421.557 833.59 423.004 827.966 425.917L828.886 427.693C834.199 424.941 840.143 423.557 846.736 423.557V421.557ZM827.972 425.914C822.432 428.734 817.766 433.008 813.971 438.701L815.635 439.811C819.261 434.371 823.678 430.344 828.879 427.696L827.972 425.914ZM813.971 438.701C810.178 444.39 807.307 451.441 805.333 459.828L807.28 460.286C809.213 452.071 812.005 445.255 815.635 439.811L813.971 438.701ZM805.334 459.825C803.358 468.123 802.377 477.774 802.377 488.768H804.377C804.377 477.886 805.349 468.397 807.279 460.288L805.334 459.825ZM802.377 488.768V501.658H804.377V488.768H802.377ZM802.377 501.658C802.377 512.652 803.358 522.351 805.333 530.745L807.28 530.287C805.349 522.078 804.377 512.539 804.377 501.658H802.377ZM805.336 530.755C807.409 539.147 810.431 546.201 814.424 551.891L816.061 550.742C812.241 545.299 809.306 538.486 807.277 530.276L805.336 530.755ZM814.428 551.898C818.431 557.502 823.494 561.764 829.608 564.671L830.466 562.864C824.666 560.107 819.865 556.068 816.056 550.735L814.428 551.898ZM829.613 564.673C835.824 567.579 843.005 569.016 851.131 569.016V567.016C843.241 567.016 836.359 565.621 830.461 562.862L829.613 564.673ZM851.131 569.016C857.427 569.016 862.78 568.524 867.173 567.526L866.73 565.576C862.529 566.53 857.335 567.016 851.131 567.016V569.016ZM867.194 567.521C871.546 566.433 875.155 565.086 877.994 563.464L877.002 561.727C874.372 563.23 870.95 564.52 866.709 565.581L867.194 567.521ZM878.017 563.45C880.782 561.772 882.909 560.21 884.357 558.762L882.943 557.348C881.657 558.633 879.683 560.099 876.979 561.741L878.017 563.45ZM884.65 558.055V522.605H882.65V558.055H884.65ZM883.65 521.605H845.711V523.605H883.65V521.605ZM846.711 522.605V489.354H844.711V522.605H846.711ZM845.711 490.354H931.404V488.354H845.711V490.354ZM1135.9 489.354H1136.9V488.354H1135.9V489.354ZM1135.9 575.34L1136.65 576L1136.9 575.717V575.34H1135.9ZM1119.78 588.23L1119.25 587.386L1119.24 587.39L1119.78 588.23ZM1092.39 600.096L1092.67 601.056L1092.68 601.054L1092.39 600.096ZM1014.46 598.191L1014.09 599.119L1014.1 599.122L1014.46 598.191ZM985.018 578.123L984.283 578.801L984.287 578.805L985.018 578.123ZM965.975 545.604L965.029 545.928L965.031 545.935L965.975 545.604ZM984.578 412.742L985.317 413.416L985.321 413.412L984.578 412.742ZM1096.49 394.871L1096.04 395.763L1096.04 395.766L1096.49 394.871ZM1124.03 420.066L1123.17 420.569L1123.17 420.575L1124.03 420.066ZM1135.75 457.127V458.127H1136.86L1136.74 457.023L1135.75 457.127ZM1089.75 457.127L1088.76 457.263L1088.88 458.127H1089.75V457.127ZM1083.89 438.67L1083.02 439.15L1083.02 439.156L1083.02 439.163L1083.89 438.67ZM1071.74 426.805L1071.26 427.686L1071.27 427.689L1071.28 427.692L1071.74 426.805ZM1032.92 426.805L1033.37 427.696L1033.38 427.693L1032.92 426.805ZM1010.8 460.057L1011.77 460.288L1011.77 460.286L1010.8 460.057ZM1010.8 530.516L1009.83 530.745L1009.83 530.755L1010.8 530.516ZM1019.73 551.316L1018.92 551.891L1018.92 551.898L1019.73 551.316ZM1034.53 563.768L1034.1 564.671L1034.11 564.673L1034.53 563.768ZM1071.44 566.551L1071.66 567.526L1071.68 567.524L1071.69 567.521L1071.44 566.551ZM1081.99 562.596L1082.49 563.464L1082.5 563.457L1082.51 563.45L1081.99 562.596ZM1088.14 558.055L1088.85 558.762L1089.14 558.469V558.055H1088.14ZM1088.14 522.605H1089.14V521.605H1088.14V522.605ZM1050.2 522.605H1049.2V523.605H1050.2V522.605ZM1050.2 489.354V488.354H1049.2V489.354H1050.2ZM1134.9 489.354V575.34H1136.9V489.354H1134.9ZM1135.15 574.68C1131.72 578.583 1126.44 582.821 1119.25 587.386L1120.32 589.075C1127.58 584.461 1133.04 580.105 1136.65 576L1135.15 574.68ZM1119.24 587.39C1112.22 591.914 1103.18 595.835 1092.1 599.137L1092.68 601.054C1103.87 597.716 1113.09 593.727 1120.32 589.071L1119.24 587.39ZM1092.11 599.135C1081.09 602.325 1067.91 603.93 1052.55 603.93V605.93C1068.04 605.93 1081.42 604.312 1092.67 601.056L1092.11 599.135ZM1052.55 603.93C1038.69 603.93 1026.12 601.701 1014.83 597.261L1014.1 599.122C1025.65 603.666 1038.47 605.93 1052.55 605.93V603.93ZM1014.83 597.263C1003.54 592.727 993.849 586.12 985.749 577.441L984.287 578.805C992.592 587.704 1002.53 594.476 1014.09 599.119L1014.83 597.263ZM985.752 577.445C977.652 568.67 971.371 557.952 966.918 545.272L965.031 545.935C969.563 558.841 975.977 569.803 984.283 578.801L985.752 577.445ZM966.92 545.279C962.569 532.61 960.383 518.075 960.383 501.658H958.383C958.383 518.249 960.592 533.011 965.029 545.928L966.92 545.279ZM960.383 501.658V489.061H958.383V501.658H960.383ZM960.383 489.061C960.383 472.644 962.569 458.108 966.92 445.44L965.029 444.79C960.592 457.708 958.383 472.47 958.383 489.061H960.383ZM966.92 445.44C971.277 432.759 977.413 422.091 985.317 413.416L983.839 412.069C975.727 420.972 969.462 431.886 965.029 444.79L966.92 445.44ZM985.321 413.412C993.23 404.635 1002.63 397.983 1013.53 393.451L1012.76 391.604C1001.59 396.251 991.942 403.076 983.835 412.073L985.321 413.412ZM1013.53 393.451C1024.43 388.917 1036.5 386.643 1049.76 386.643V384.643C1036.27 384.643 1023.93 386.958 1012.76 391.604L1013.53 393.451ZM1049.76 386.643C1068.71 386.643 1084.12 389.704 1096.04 395.763L1096.95 393.98C1084.65 387.733 1068.9 384.643 1049.76 384.643V386.643ZM1096.04 395.766C1108 401.741 1117.02 410.01 1123.17 420.569L1124.9 419.564C1118.54 408.638 1109.21 400.11 1096.94 393.977L1096.04 395.766ZM1123.17 420.575C1129.44 431.179 1133.3 443.391 1134.76 457.231L1136.74 457.023C1135.27 442.933 1131.32 430.438 1124.89 419.558L1123.17 420.575ZM1135.75 456.127H1089.75V458.127H1135.75V456.127ZM1090.74 456.991C1089.75 449.762 1087.77 443.484 1084.76 438.177L1083.02 439.163C1085.88 444.208 1087.8 450.234 1088.76 457.263L1090.74 456.991ZM1084.77 438.19C1081.84 432.839 1077.65 428.742 1072.2 425.917L1071.28 427.692C1076.37 430.336 1080.28 434.15 1083.02 439.15L1084.77 438.19ZM1072.21 425.924C1066.74 422.988 1059.73 421.557 1051.23 421.557V423.557C1059.52 423.557 1066.18 424.957 1071.26 427.686L1072.21 425.924ZM1051.23 421.557C1044.35 421.557 1038.08 423.004 1032.46 425.917L1033.38 427.693C1038.69 424.941 1044.63 423.557 1051.23 423.557V421.557ZM1032.46 425.914C1026.92 428.734 1022.26 433.008 1018.46 438.701L1020.13 439.811C1023.75 434.371 1028.17 430.344 1033.37 427.696L1032.46 425.914ZM1018.46 438.701C1014.67 444.39 1011.8 451.441 1009.83 459.828L1011.77 460.286C1013.71 452.071 1016.5 445.255 1020.13 439.811L1018.46 438.701ZM1009.83 459.825C1007.85 468.123 1006.87 477.774 1006.87 488.768H1008.87C1008.87 477.886 1009.84 468.397 1011.77 460.288L1009.83 459.825ZM1006.87 488.768V501.658H1008.87V488.768H1006.87ZM1006.87 501.658C1006.87 512.652 1007.85 522.351 1009.83 530.745L1011.77 530.287C1009.84 522.078 1008.87 512.539 1008.87 501.658H1006.87ZM1009.83 530.755C1011.9 539.147 1014.92 546.201 1018.92 551.891L1020.55 550.742C1016.73 545.299 1013.8 538.486 1011.77 530.276L1009.83 530.755ZM1018.92 551.898C1022.92 557.502 1027.99 561.764 1034.1 564.671L1034.96 562.864C1029.16 560.107 1024.36 556.068 1020.55 550.735L1018.92 551.898ZM1034.11 564.673C1040.32 567.579 1047.5 569.016 1055.62 569.016V567.016C1047.73 567.016 1040.85 565.621 1034.95 562.862L1034.11 564.673ZM1055.62 569.016C1061.92 569.016 1067.27 568.524 1071.66 567.526L1071.22 565.576C1067.02 566.53 1061.83 567.016 1055.62 567.016V569.016ZM1071.69 567.521C1076.04 566.433 1079.65 565.086 1082.49 563.464L1081.49 561.727C1078.86 563.23 1075.44 564.52 1071.2 565.581L1071.69 567.521ZM1082.51 563.45C1085.27 561.772 1087.4 560.21 1088.85 558.762L1087.44 557.348C1086.15 558.633 1084.18 560.099 1081.47 561.741L1082.51 563.45ZM1089.14 558.055V522.605H1087.14V558.055H1089.14ZM1088.14 521.605H1050.2V523.605H1088.14V521.605ZM1051.2 522.605V489.354H1049.2V522.605H1051.2ZM1050.2 490.354H1135.9V488.354H1050.2V490.354ZM1285.31 388.719V387.719H1284.31V388.719H1285.31ZM1333.06 388.719H1334.06V387.719H1333.06V388.719ZM1322.52 570.652L1321.67 570.125L1321.66 570.13L1322.52 570.652ZM1207.09 596.287L1206.67 597.194L1206.67 597.195L1207.09 596.287ZM1177.79 570.652L1176.94 571.18L1176.94 571.185L1177.79 570.652ZM1167.24 388.719V387.719H1166.24V388.719H1167.24ZM1215.14 388.719H1216.14V387.719H1215.14V388.719ZM1219.25 551.316L1218.34 551.739L1218.34 551.748L1218.35 551.758L1219.25 551.316ZM1231.4 564.061L1230.94 564.948L1230.95 564.952L1230.96 564.955L1231.4 564.061ZM1269.34 564.061L1269.8 564.952L1269.8 564.948L1269.34 564.061ZM1281.21 551.316L1280.3 550.894L1280.3 550.9L1281.21 551.316ZM1285.31 389.719H1333.06V387.719H1285.31V389.719ZM1332.06 388.719V528.758H1334.06V388.719H1332.06ZM1332.06 528.758C1332.06 545.219 1328.58 558.99 1321.67 570.125L1323.37 571.18C1330.52 559.659 1334.06 545.5 1334.06 528.758H1332.06ZM1321.66 570.13C1314.84 581.285 1305.32 589.699 1293.09 595.38L1293.93 597.194C1306.51 591.352 1316.33 582.676 1323.37 571.174L1321.66 570.13ZM1293.09 595.38C1280.84 601.07 1266.64 603.93 1250.45 603.93V605.93C1266.87 605.93 1281.38 603.028 1293.93 597.194L1293.09 595.38ZM1250.45 603.93C1234.16 603.93 1219.85 601.07 1207.51 595.379L1206.67 597.195C1219.32 603.028 1233.92 605.93 1250.45 605.93V603.93ZM1207.51 595.38C1195.28 589.698 1185.66 581.281 1178.64 570.12L1176.94 571.185C1184.18 582.68 1194.09 591.353 1206.67 597.194L1207.51 595.38ZM1178.64 570.125C1171.73 558.99 1168.24 545.219 1168.24 528.758H1166.24C1166.24 545.5 1169.79 559.659 1176.94 571.18L1178.64 570.125ZM1168.24 528.758V388.719H1166.24V528.758H1168.24ZM1167.24 389.719H1215.14V387.719H1167.24V389.719ZM1214.14 388.719V528.758H1216.14V388.719H1214.14ZM1214.14 528.758C1214.14 538.027 1215.52 545.704 1218.34 551.739L1220.15 550.894C1217.5 545.21 1216.14 537.848 1216.14 528.758H1214.14ZM1218.35 551.758C1221.27 557.695 1225.47 562.107 1230.94 564.948L1231.86 563.173C1226.8 560.545 1222.89 556.462 1220.14 550.875L1218.35 551.758ZM1230.96 564.955C1236.4 567.677 1242.91 569.016 1250.45 569.016V567.016C1243.14 567.016 1236.95 565.718 1231.85 563.166L1230.96 564.955ZM1250.45 569.016C1257.98 569.016 1264.45 567.677 1269.8 564.952L1268.89 563.17C1263.89 565.717 1257.75 567.016 1250.45 567.016V569.016ZM1269.8 564.948C1275.29 562.104 1279.4 557.683 1282.12 551.733L1280.3 550.9C1277.75 556.474 1273.95 560.548 1268.88 563.173L1269.8 564.948ZM1282.12 551.739C1284.93 545.704 1286.31 538.027 1286.31 528.758H1284.31C1284.31 537.848 1282.96 545.21 1280.3 550.894L1282.12 551.739ZM1286.31 528.758V388.719H1284.31V528.758H1286.31Z" fill="black"/>
<path d="M931.404 489.354H932.404V488.354H931.404V489.354ZM931.404 575.34L932.156 576L932.404 575.717V575.34H931.404ZM915.291 588.23L914.755 587.386L914.75 587.39L915.291 588.23ZM887.898 600.096L888.176 601.056L888.184 601.054L887.898 600.096ZM809.969 598.191L809.596 599.119L809.603 599.122L809.969 598.191ZM780.525 578.123L779.791 578.801L779.794 578.805L780.525 578.123ZM761.482 545.604L760.537 545.928L760.539 545.935L761.482 545.604ZM780.086 412.742L780.825 413.416L780.829 413.412L780.086 412.742ZM892 394.871L891.547 395.763L891.553 395.766L892 394.871ZM919.539 420.066L918.675 420.569L918.678 420.575L919.539 420.066ZM931.258 457.127V458.127H932.368L932.252 457.023L931.258 457.127ZM885.262 457.127L884.271 457.263L884.389 458.127H885.262V457.127ZM879.402 438.67L878.525 439.15L878.529 439.156L878.532 439.163L879.402 438.67ZM867.244 426.805L866.771 427.686L866.777 427.689L866.784 427.692L867.244 426.805ZM828.426 426.805L828.879 427.696L828.886 427.693L828.426 426.805ZM806.307 460.057L807.279 460.288L807.28 460.286L806.307 460.057ZM806.307 530.516L805.333 530.745L805.336 530.755L806.307 530.516ZM815.242 551.316L814.424 551.891L814.428 551.898L815.242 551.316ZM830.037 563.768L829.608 564.671L829.613 564.673L830.037 563.768ZM866.951 566.551L867.173 567.526L867.183 567.524L867.194 567.521L866.951 566.551ZM877.498 562.596L877.994 563.464L878.006 563.457L878.017 563.45L877.498 562.596ZM883.65 558.055L884.357 558.762L884.65 558.469V558.055H883.65ZM883.65 522.605H884.65V521.605H883.65V522.605ZM845.711 522.605H844.711V523.605H845.711V522.605ZM845.711 489.354V488.354H844.711V489.354H845.711ZM930.404 489.354V575.34H932.404V489.354H930.404ZM930.653 574.68C927.226 578.583 921.944 582.821 914.755 587.386L915.827 589.075C923.092 584.461 928.551 580.105 932.156 576L930.653 574.68ZM914.75 587.39C907.723 591.914 898.686 595.835 887.613 599.137L888.184 601.054C899.376 597.716 908.601 593.727 915.832 589.071L914.75 587.39ZM887.62 599.135C876.602 602.325 863.419 603.93 848.055 603.93V605.93C863.549 605.93 876.929 604.312 888.176 601.056L887.62 599.135ZM848.055 603.93C834.198 603.93 821.629 601.701 810.335 597.261L809.603 599.122C821.16 603.666 833.982 605.93 848.055 605.93V603.93ZM810.342 597.263C799.048 592.727 789.357 586.12 781.256 577.441L779.794 578.805C788.1 587.704 798.038 594.476 809.596 599.119L810.342 597.263ZM781.26 577.445C773.16 568.67 766.878 557.952 762.426 545.272L760.539 545.935C765.071 558.841 771.484 569.803 779.791 578.801L781.26 577.445ZM762.428 545.279C758.076 532.61 755.891 518.075 755.891 501.658H753.891C753.891 518.249 756.099 533.011 760.537 545.928L762.428 545.279ZM755.891 501.658V489.061H753.891V501.658H755.891ZM755.891 489.061C755.891 472.644 758.076 458.108 762.428 445.44L760.537 444.79C756.099 457.708 753.891 472.47 753.891 489.061H755.891ZM762.428 445.44C766.784 432.759 772.921 422.091 780.825 413.416L779.347 412.069C771.235 420.972 764.969 431.886 760.537 444.79L762.428 445.44ZM780.829 413.412C788.737 404.635 798.136 397.983 809.034 393.451L808.266 391.604C797.094 396.251 787.45 403.076 779.343 412.073L780.829 413.412ZM809.034 393.451C819.934 388.917 832.009 386.643 845.271 386.643V384.643C831.776 384.643 819.437 386.958 808.266 391.604L809.034 393.451ZM845.271 386.643C864.217 386.643 879.623 389.704 891.547 395.763L892.453 393.98C880.158 387.733 864.412 384.643 845.271 384.643V386.643ZM891.553 395.766C903.504 401.741 912.531 410.01 918.675 420.569L920.403 419.564C914.047 408.638 904.715 400.11 892.447 393.977L891.553 395.766ZM918.678 420.575C924.944 431.179 928.812 443.391 930.263 457.231L932.252 457.023C930.774 442.933 926.829 430.438 920.4 419.558L918.678 420.575ZM931.258 456.127H885.262V458.127H931.258V456.127ZM886.252 456.991C885.262 449.762 883.276 443.484 880.273 438.177L878.532 439.163C881.388 444.208 883.308 450.234 884.271 457.263L886.252 456.991ZM880.28 438.19C877.352 432.839 873.153 428.742 867.704 425.917L866.784 427.692C871.882 430.336 875.789 434.15 878.525 439.15L880.28 438.19ZM867.717 425.924C862.252 422.988 855.237 421.557 846.736 421.557V423.557C855.032 423.557 861.69 424.957 866.771 427.686L867.717 425.924ZM846.736 421.557C839.853 421.557 833.59 423.004 827.966 425.917L828.886 427.693C834.199 424.941 840.143 423.557 846.736 423.557V421.557ZM827.972 425.914C822.432 428.734 817.766 433.008 813.971 438.701L815.635 439.811C819.261 434.371 823.678 430.344 828.879 427.696L827.972 425.914ZM813.971 438.701C810.178 444.39 807.307 451.441 805.333 459.828L807.28 460.286C809.213 452.071 812.005 445.255 815.635 439.811L813.971 438.701ZM805.334 459.825C803.358 468.123 802.377 477.774 802.377 488.768H804.377C804.377 477.886 805.349 468.397 807.279 460.288L805.334 459.825ZM802.377 488.768V501.658H804.377V488.768H802.377ZM802.377 501.658C802.377 512.652 803.358 522.351 805.333 530.745L807.28 530.287C805.349 522.078 804.377 512.539 804.377 501.658H802.377ZM805.336 530.755C807.409 539.147 810.431 546.201 814.424 551.891L816.061 550.742C812.241 545.299 809.306 538.486 807.277 530.276L805.336 530.755ZM814.428 551.898C818.431 557.502 823.494 561.764 829.608 564.671L830.466 562.864C824.666 560.107 819.865 556.068 816.056 550.735L814.428 551.898ZM829.613 564.673C835.824 567.579 843.005 569.016 851.131 569.016V567.016C843.241 567.016 836.359 565.621 830.461 562.862L829.613 564.673ZM851.131 569.016C857.427 569.016 862.78 568.524 867.173 567.526L866.73 565.576C862.529 566.53 857.335 567.016 851.131 567.016V569.016ZM867.194 567.521C871.546 566.433 875.155 565.086 877.994 563.464L877.002 561.727C874.372 563.23 870.95 564.52 866.709 565.581L867.194 567.521ZM878.017 563.45C880.782 561.772 882.909 560.21 884.357 558.762L882.943 557.348C881.657 558.633 879.683 560.099 876.979 561.741L878.017 563.45ZM884.65 558.055V522.605H882.65V558.055H884.65ZM883.65 521.605H845.711V523.605H883.65V521.605ZM846.711 522.605V489.354H844.711V522.605H846.711ZM845.711 490.354H931.404V488.354H845.711V490.354ZM1135.9 489.354H1136.9V488.354H1135.9V489.354ZM1135.9 575.34L1136.65 576L1136.9 575.717V575.34H1135.9ZM1119.78 588.23L1119.25 587.386L1119.24 587.39L1119.78 588.23ZM1092.39 600.096L1092.67 601.056L1092.68 601.054L1092.39 600.096ZM1014.46 598.191L1014.09 599.119L1014.1 599.122L1014.46 598.191ZM985.018 578.123L984.283 578.801L984.287 578.805L985.018 578.123ZM965.975 545.604L965.029 545.928L965.031 545.935L965.975 545.604ZM984.578 412.742L985.317 413.416L985.321 413.412L984.578 412.742ZM1096.49 394.871L1096.04 395.763L1096.04 395.766L1096.49 394.871ZM1124.03 420.066L1123.17 420.569L1123.17 420.575L1124.03 420.066ZM1135.75 457.127V458.127H1136.86L1136.74 457.023L1135.75 457.127ZM1089.75 457.127L1088.76 457.263L1088.88 458.127H1089.75V457.127ZM1083.89 438.67L1083.02 439.15L1083.02 439.156L1083.02 439.163L1083.89 438.67ZM1071.74 426.805L1071.26 427.686L1071.27 427.689L1071.28 427.692L1071.74 426.805ZM1032.92 426.805L1033.37 427.696L1033.38 427.693L1032.92 426.805ZM1010.8 460.057L1011.77 460.288L1011.77 460.286L1010.8 460.057ZM1010.8 530.516L1009.83 530.745L1009.83 530.755L1010.8 530.516ZM1019.73 551.316L1018.92 551.891L1018.92 551.898L1019.73 551.316ZM1034.53 563.768L1034.1 564.671L1034.11 564.673L1034.53 563.768ZM1071.44 566.551L1071.66 567.526L1071.68 567.524L1071.69 567.521L1071.44 566.551ZM1081.99 562.596L1082.49 563.464L1082.5 563.457L1082.51 563.45L1081.99 562.596ZM1088.14 558.055L1088.85 558.762L1089.14 558.469V558.055H1088.14ZM1088.14 522.605H1089.14V521.605H1088.14V522.605ZM1050.2 522.605H1049.2V523.605H1050.2V522.605ZM1050.2 489.354V488.354H1049.2V489.354H1050.2ZM1134.9 489.354V575.34H1136.9V489.354H1134.9ZM1135.15 574.68C1131.72 578.583 1126.44 582.821 1119.25 587.386L1120.32 589.075C1127.58 584.461 1133.04 580.105 1136.65 576L1135.15 574.68ZM1119.24 587.39C1112.22 591.914 1103.18 595.835 1092.1 599.137L1092.68 601.054C1103.87 597.716 1113.09 593.727 1120.32 589.071L1119.24 587.39ZM1092.11 599.135C1081.09 602.325 1067.91 603.93 1052.55 603.93V605.93C1068.04 605.93 1081.42 604.312 1092.67 601.056L1092.11 599.135ZM1052.55 603.93C1038.69 603.93 1026.12 601.701 1014.83 597.261L1014.1 599.122C1025.65 603.666 1038.47 605.93 1052.55 605.93V603.93ZM1014.83 597.263C1003.54 592.727 993.849 586.12 985.749 577.441L984.287 578.805C992.592 587.704 1002.53 594.476 1014.09 599.119L1014.83 597.263ZM985.752 577.445C977.652 568.67 971.371 557.952 966.918 545.272L965.031 545.935C969.563 558.841 975.977 569.803 984.283 578.801L985.752 577.445ZM966.92 545.279C962.569 532.61 960.383 518.075 960.383 501.658H958.383C958.383 518.249 960.592 533.011 965.029 545.928L966.92 545.279ZM960.383 501.658V489.061H958.383V501.658H960.383ZM960.383 489.061C960.383 472.644 962.569 458.108 966.92 445.44L965.029 444.79C960.592 457.708 958.383 472.47 958.383 489.061H960.383ZM966.92 445.44C971.277 432.759 977.413 422.091 985.317 413.416L983.839 412.069C975.727 420.972 969.462 431.886 965.029 444.79L966.92 445.44ZM985.321 413.412C993.23 404.635 1002.63 397.983 1013.53 393.451L1012.76 391.604C1001.59 396.251 991.942 403.076 983.835 412.073L985.321 413.412ZM1013.53 393.451C1024.43 388.917 1036.5 386.643 1049.76 386.643V384.643C1036.27 384.643 1023.93 386.958 1012.76 391.604L1013.53 393.451ZM1049.76 386.643C1068.71 386.643 1084.12 389.704 1096.04 395.763L1096.95 393.98C1084.65 387.733 1068.9 384.643 1049.76 384.643V386.643ZM1096.04 395.766C1108 401.741 1117.02 410.01 1123.17 420.569L1124.9 419.564C1118.54 408.638 1109.21 400.11 1096.94 393.977L1096.04 395.766ZM1123.17 420.575C1129.44 431.179 1133.3 443.391 1134.76 457.231L1136.74 457.023C1135.27 442.933 1131.32 430.438 1124.89 419.558L1123.17 420.575ZM1135.75 456.127H1089.75V458.127H1135.75V456.127ZM1090.74 456.991C1089.75 449.762 1087.77 443.484 1084.76 438.177L1083.02 439.163C1085.88 444.208 1087.8 450.234 1088.76 457.263L1090.74 456.991ZM1084.77 438.19C1081.84 432.839 1077.65 428.742 1072.2 425.917L1071.28 427.692C1076.37 430.336 1080.28 434.15 1083.02 439.15L1084.77 438.19ZM1072.21 425.924C1066.74 422.988 1059.73 421.557 1051.23 421.557V423.557C1059.52 423.557 1066.18 424.957 1071.26 427.686L1072.21 425.924ZM1051.23 421.557C1044.35 421.557 1038.08 423.004 1032.46 425.917L1033.38 427.693C1038.69 424.941 1044.63 423.557 1051.23 423.557V421.557ZM1032.46 425.914C1026.92 428.734 1022.26 433.008 1018.46 438.701L1020.13 439.811C1023.75 434.371 1028.17 430.344 1033.37 427.696L1032.46 425.914ZM1018.46 438.701C1014.67 444.39 1011.8 451.441 1009.83 459.828L1011.77 460.286C1013.71 452.071 1016.5 445.255 1020.13 439.811L1018.46 438.701ZM1009.83 459.825C1007.85 468.123 1006.87 477.774 1006.87 488.768H1008.87C1008.87 477.886 1009.84 468.397 1011.77 460.288L1009.83 459.825ZM1006.87 488.768V501.658H1008.87V488.768H1006.87ZM1006.87 501.658C1006.87 512.652 1007.85 522.351 1009.83 530.745L1011.77 530.287C1009.84 522.078 1008.87 512.539 1008.87 501.658H1006.87ZM1009.83 530.755C1011.9 539.147 1014.92 546.201 1018.92 551.891L1020.55 550.742C1016.73 545.299 1013.8 538.486 1011.77 530.276L1009.83 530.755ZM1018.92 551.898C1022.92 557.502 1027.99 561.764 1034.1 564.671L1034.96 562.864C1029.16 560.107 1024.36 556.068 1020.55 550.735L1018.92 551.898ZM1034.11 564.673C1040.32 567.579 1047.5 569.016 1055.62 569.016V567.016C1047.73 567.016 1040.85 565.621 1034.95 562.862L1034.11 564.673ZM1055.62 569.016C1061.92 569.016 1067.27 568.524 1071.66 567.526L1071.22 565.576C1067.02 566.53 1061.83 567.016 1055.62 567.016V569.016ZM1071.69 567.521C1076.04 566.433 1079.65 565.086 1082.49 563.464L1081.49 561.727C1078.86 563.23 1075.44 564.52 1071.2 565.581L1071.69 567.521ZM1082.51 563.45C1085.27 561.772 1087.4 560.21 1088.85 558.762L1087.44 557.348C1086.15 558.633 1084.18 560.099 1081.47 561.741L1082.51 563.45ZM1089.14 558.055V522.605H1087.14V558.055H1089.14ZM1088.14 521.605H1050.2V523.605H1088.14V521.605ZM1051.2 522.605V489.354H1049.2V522.605H1051.2ZM1050.2 490.354H1135.9V488.354H1050.2V490.354ZM1285.31 388.719V387.719H1284.31V388.719H1285.31ZM1333.06 388.719H1334.06V387.719H1333.06V388.719ZM1322.52 570.652L1321.67 570.125L1321.66 570.13L1322.52 570.652ZM1207.09 596.287L1206.67 597.194L1206.67 597.195L1207.09 596.287ZM1177.79 570.652L1176.94 571.18L1176.94 571.185L1177.79 570.652ZM1167.24 388.719V387.719H1166.24V388.719H1167.24ZM1215.14 388.719H1216.14V387.719H1215.14V388.719ZM1219.25 551.316L1218.34 551.739L1218.34 551.748L1218.35 551.758L1219.25 551.316ZM1231.4 564.061L1230.94 564.948L1230.95 564.952L1230.96 564.955L1231.4 564.061ZM1269.34 564.061L1269.8 564.952L1269.8 564.948L1269.34 564.061ZM1281.21 551.316L1280.3 550.894L1280.3 550.9L1281.21 551.316ZM1285.31 389.719H1333.06V387.719H1285.31V389.719ZM1332.06 388.719V528.758H1334.06V388.719H1332.06ZM1332.06 528.758C1332.06 545.219 1328.58 558.99 1321.67 570.125L1323.37 571.18C1330.52 559.659 1334.06 545.5 1334.06 528.758H1332.06ZM1321.66 570.13C1314.84 581.285 1305.32 589.699 1293.09 595.38L1293.93 597.194C1306.51 591.352 1316.33 582.676 1323.37 571.174L1321.66 570.13ZM1293.09 595.38C1280.84 601.07 1266.64 603.93 1250.45 603.93V605.93C1266.87 605.93 1281.38 603.028 1293.93 597.194L1293.09 595.38ZM1250.45 603.93C1234.16 603.93 1219.85 601.07 1207.51 595.379L1206.67 597.195C1219.32 603.028 1233.92 605.93 1250.45 605.93V603.93ZM1207.51 595.38C1195.28 589.698 1185.66 581.281 1178.64 570.12L1176.94 571.185C1184.18 582.68 1194.09 591.353 1206.67 597.194L1207.51 595.38ZM1178.64 570.125C1171.73 558.99 1168.24 545.219 1168.24 528.758H1166.24C1166.24 545.5 1169.79 559.659 1176.94 571.18L1178.64 570.125ZM1168.24 528.758V388.719H1166.24V528.758H1168.24ZM1167.24 389.719H1215.14V387.719H1167.24V389.719ZM1214.14 388.719V528.758H1216.14V388.719H1214.14ZM1214.14 528.758C1214.14 538.027 1215.52 545.704 1218.34 551.739L1220.15 550.894C1217.5 545.21 1216.14 537.848 1216.14 528.758H1214.14ZM1218.35 551.758C1221.27 557.695 1225.47 562.107 1230.94 564.948L1231.86 563.173C1226.8 560.545 1222.89 556.462 1220.14 550.875L1218.35 551.758ZM1230.96 564.955C1236.4 567.677 1242.91 569.016 1250.45 569.016V567.016C1243.14 567.016 1236.95 565.718 1231.85 563.166L1230.96 564.955ZM1250.45 569.016C1257.98 569.016 1264.45 567.677 1269.8 564.952L1268.89 563.17C1263.89 565.717 1257.75 567.016 1250.45 567.016V569.016ZM1269.8 564.948C1275.29 562.104 1279.4 557.683 1282.12 551.733L1280.3 550.9C1277.75 556.474 1273.95 560.548 1268.88 563.173L1269.8 564.948ZM1282.12 551.739C1284.93 545.704 1286.31 538.027 1286.31 528.758H1284.31C1284.31 537.848 1282.96 545.21 1280.3 550.894L1282.12 551.739ZM1286.31 528.758V388.719H1284.31V528.758H1286.31Z" fill="black" fill-opacity="0.2"/>
</svg>
