<svg width="900" height="350" viewBox="0 0 900 350" fill="none" xmlns="http://www.w3.org/2000/svg">
<ellipse cx="139" cy="122" rx="139" ry="122" fill="#125370"/>
<ellipse cx="251" cy="172.5" rx="139" ry="121.5" fill="#1A9AD0"/>
<ellipse cx="139" cy="228" rx="139" ry="122" fill="#DA0EB9"/>
<path d="M481.404 163.354V249.34C477.889 253.344 472.518 257.641 465.291 262.23C458.162 266.82 449.031 270.775 437.898 274.096C426.766 277.318 413.484 278.93 398.055 278.93C384.09 278.93 371.395 276.684 359.969 272.191C348.543 267.602 338.729 260.912 330.525 252.123C322.322 243.236 315.975 232.396 311.482 219.604C307.088 206.811 304.891 192.162 304.891 175.658V163.061C304.891 146.557 307.088 131.908 311.482 119.115C315.877 106.322 322.078 95.5312 330.086 86.7422C338.094 77.8555 347.615 71.1172 358.65 66.5273C369.686 61.9375 381.893 59.6426 395.271 59.6426C414.314 59.6426 429.891 62.7188 442 68.8711C454.109 74.9258 463.289 83.3242 469.539 94.0664C475.887 104.809 479.793 117.162 481.258 131.127H435.262C434.285 123.998 432.332 117.846 429.402 112.67C426.57 107.494 422.518 103.539 417.244 100.805C411.971 97.9727 405.135 96.5566 396.736 96.5566C389.998 96.5566 383.895 97.9727 378.426 100.805C373.055 103.539 368.514 107.689 364.803 113.256C361.092 118.822 358.26 125.756 356.307 134.057C354.354 142.26 353.377 151.83 353.377 162.768V175.658C353.377 186.596 354.354 196.215 356.307 204.516C358.357 212.816 361.336 219.75 365.242 225.316C369.148 230.785 374.08 234.936 380.037 237.768C386.092 240.6 393.123 242.016 401.131 242.016C407.381 242.016 412.654 241.527 416.951 240.551C421.248 239.477 424.764 238.158 427.498 236.596C430.232 234.936 432.283 233.422 433.65 232.055V196.605H395.711V163.354H481.404ZM685.896 163.354V249.34C682.381 253.344 677.01 257.641 669.783 262.23C662.654 266.82 653.523 270.775 642.391 274.096C631.258 277.318 617.977 278.93 602.547 278.93C588.582 278.93 575.887 276.684 564.461 272.191C553.035 267.602 543.221 260.912 535.018 252.123C526.814 243.236 520.467 232.396 515.975 219.604C511.58 206.811 509.383 192.162 509.383 175.658V163.061C509.383 146.557 511.58 131.908 515.975 119.115C520.369 106.322 526.57 95.5312 534.578 86.7422C542.586 77.8555 552.107 71.1172 563.143 66.5273C574.178 61.9375 586.385 59.6426 599.764 59.6426C618.807 59.6426 634.383 62.7188 646.492 68.8711C658.602 74.9258 667.781 83.3242 674.031 94.0664C680.379 104.809 684.285 117.162 685.75 131.127H639.754C638.777 123.998 636.824 117.846 633.895 112.67C631.062 107.494 627.01 103.539 621.736 100.805C616.463 97.9727 609.627 96.5566 601.229 96.5566C594.49 96.5566 588.387 97.9727 582.918 100.805C577.547 103.539 573.006 107.689 569.295 113.256C565.584 118.822 562.752 125.756 560.799 134.057C558.846 142.26 557.869 151.83 557.869 162.768V175.658C557.869 186.596 558.846 196.215 560.799 204.516C562.85 212.816 565.828 219.75 569.734 225.316C573.641 230.785 578.572 234.936 584.529 237.768C590.584 240.6 597.615 242.016 605.623 242.016C611.873 242.016 617.146 241.527 621.443 240.551C625.74 239.477 629.256 238.158 631.99 236.596C634.725 234.936 636.775 233.422 638.143 232.055V196.605H600.203V163.354H685.896ZM835.311 62.7188H883.064V202.758C883.064 219.359 879.549 233.324 872.518 244.652C865.584 255.98 855.916 264.525 843.514 270.287C831.111 276.049 816.756 278.93 800.447 278.93C784.041 278.93 769.588 276.049 757.088 270.287C744.686 264.525 734.92 255.98 727.791 244.652C720.76 233.324 717.244 219.359 717.244 202.758V62.7188H765.145V202.758C765.145 211.938 766.512 219.457 769.246 225.316C772.078 231.078 776.131 235.326 781.404 238.061C786.678 240.697 793.025 242.016 800.447 242.016C807.869 242.016 814.168 240.697 819.344 238.061C824.617 235.326 828.572 231.078 831.209 225.316C833.943 219.457 835.311 211.938 835.311 202.758V62.7188Z" fill="#FFE7E7"/>
<path d="M481.404 163.354H482.404V162.354H481.404V163.354ZM481.404 249.34L482.156 250L482.404 249.717V249.34H481.404ZM465.291 262.23L464.755 261.386L464.75 261.39L465.291 262.23ZM437.898 274.096L438.176 275.056L438.184 275.054L437.898 274.096ZM359.969 272.191L359.596 273.119L359.603 273.122L359.969 272.191ZM330.525 252.123L329.791 252.801L329.794 252.805L330.525 252.123ZM311.482 219.604L310.537 219.928L310.539 219.935L311.482 219.604ZM330.086 86.7422L330.825 87.4157L330.829 87.4116L330.086 86.7422ZM442 68.8711L441.547 69.7626L441.553 69.7655L442 68.8711ZM469.539 94.0664L468.675 94.5693L468.678 94.5751L469.539 94.0664ZM481.258 131.127V132.127H482.368L482.252 131.023L481.258 131.127ZM435.262 131.127L434.271 131.263L434.389 132.127H435.262V131.127ZM429.402 112.67L428.525 113.15L428.529 113.156L428.532 113.163L429.402 112.67ZM417.244 100.805L416.771 101.686L416.777 101.689L416.784 101.692L417.244 100.805ZM378.426 100.805L378.879 101.696L378.886 101.693L378.426 100.805ZM356.307 134.057L357.279 134.288L357.28 134.286L356.307 134.057ZM356.307 204.516L355.333 204.745L355.336 204.755L356.307 204.516ZM365.242 225.316L364.424 225.891L364.428 225.898L365.242 225.316ZM380.037 237.768L379.608 238.671L379.613 238.673L380.037 237.768ZM416.951 240.551L417.173 241.526L417.183 241.524L417.194 241.521L416.951 240.551ZM427.498 236.596L427.994 237.464L428.006 237.457L428.017 237.45L427.498 236.596ZM433.65 232.055L434.357 232.762L434.65 232.469V232.055H433.65ZM433.65 196.605H434.65V195.605H433.65V196.605ZM395.711 196.605H394.711V197.605H395.711V196.605ZM395.711 163.354V162.354H394.711V163.354H395.711ZM480.404 163.354V249.34H482.404V163.354H480.404ZM480.653 248.68C477.226 252.583 471.944 256.821 464.755 261.386L465.827 263.075C473.092 258.461 478.551 254.105 482.156 250L480.653 248.68ZM464.75 261.39C457.723 265.914 448.686 269.835 437.613 273.137L438.184 275.054C449.376 271.716 458.601 267.727 465.832 263.071L464.75 261.39ZM437.62 273.135C426.602 276.325 413.419 277.93 398.055 277.93V279.93C413.549 279.93 426.929 278.312 438.176 275.056L437.62 273.135ZM398.055 277.93C384.198 277.93 371.629 275.701 360.335 271.261L359.603 273.122C371.16 277.666 383.982 279.93 398.055 279.93V277.93ZM360.342 271.263C349.048 266.727 339.357 260.12 331.256 251.441L329.794 252.805C338.1 261.704 348.038 268.476 359.596 273.119L360.342 271.263ZM331.26 251.445C323.16 242.67 316.878 231.952 312.426 219.272L310.539 219.935C315.071 232.841 321.484 243.803 329.791 252.801L331.26 251.445ZM312.428 219.279C308.076 206.61 305.891 192.075 305.891 175.658H303.891C303.891 192.249 306.099 207.011 310.537 219.928L312.428 219.279ZM305.891 175.658V163.061H303.891V175.658H305.891ZM305.891 163.061C305.891 146.644 308.076 132.108 312.428 119.44L310.537 118.79C306.099 131.708 303.891 146.47 303.891 163.061H305.891ZM312.428 119.44C316.784 106.759 322.921 96.0909 330.825 87.4157L329.347 86.0687C321.235 94.9716 314.969 105.886 310.537 118.79L312.428 119.44ZM330.829 87.4116C338.737 78.635 348.136 71.9835 359.034 67.4507L358.266 65.604C347.094 70.2509 337.45 77.076 329.343 86.0728L330.829 87.4116ZM359.034 67.4507C369.934 62.9172 382.009 60.6426 395.271 60.6426V58.6426C381.776 58.6426 369.437 60.9579 358.266 65.604L359.034 67.4507ZM395.271 60.6426C414.217 60.6426 429.623 63.7044 441.547 69.7626L442.453 67.9796C430.158 61.7331 414.412 58.6426 395.271 58.6426V60.6426ZM441.553 69.7655C453.504 75.7412 462.531 84.0105 468.675 94.5693L470.403 93.5635C464.047 82.6379 454.715 74.1103 442.447 67.9767L441.553 69.7655ZM468.678 94.5751C474.944 105.179 478.812 117.391 480.263 131.231L482.252 131.023C480.774 116.933 476.829 104.438 470.4 93.5577L468.678 94.5751ZM481.258 130.127H435.262V132.127H481.258V130.127ZM436.252 130.991C435.262 123.762 433.276 117.484 430.273 112.177L428.532 113.163C431.388 118.208 433.308 124.234 434.271 131.263L436.252 130.991ZM430.28 112.19C427.352 106.839 423.153 102.742 417.704 99.9169L416.784 101.692C421.882 104.336 425.789 108.15 428.525 113.15L430.28 112.19ZM417.717 99.9237C412.252 96.9884 405.237 95.5566 396.736 95.5566V97.5566C405.032 97.5566 411.69 98.9569 416.771 101.686L417.717 99.9237ZM396.736 95.5566C389.853 95.5566 383.59 97.0043 377.966 99.9167L378.886 101.693C384.199 98.941 390.143 97.5566 396.736 97.5566V95.5566ZM377.972 99.9135C372.432 102.734 367.766 107.008 363.971 112.701L365.635 113.811C369.261 108.371 373.678 104.344 378.879 101.696L377.972 99.9135ZM363.971 112.701C360.178 118.39 357.307 125.441 355.333 133.828L357.28 134.286C359.213 126.071 362.005 119.255 365.635 113.811L363.971 112.701ZM355.334 133.825C353.358 142.123 352.377 151.774 352.377 162.768H354.377C354.377 151.886 355.349 142.397 357.279 134.288L355.334 133.825ZM352.377 162.768V175.658H354.377V162.768H352.377ZM352.377 175.658C352.377 186.652 353.358 196.351 355.333 204.745L357.28 204.287C355.349 196.078 354.377 186.539 354.377 175.658H352.377ZM355.336 204.755C357.409 213.147 360.431 220.201 364.424 225.891L366.061 224.742C362.241 219.299 359.306 212.486 357.277 204.276L355.336 204.755ZM364.428 225.898C368.431 231.502 373.494 235.764 379.608 238.671L380.466 236.864C374.666 234.107 369.865 230.068 366.056 224.735L364.428 225.898ZM379.613 238.673C385.824 241.579 393.005 243.016 401.131 243.016V241.016C393.241 241.016 386.359 239.621 380.461 236.862L379.613 238.673ZM401.131 243.016C407.427 243.016 412.78 242.524 417.173 241.526L416.73 239.576C412.529 240.53 407.335 241.016 401.131 241.016V243.016ZM417.194 241.521C421.546 240.433 425.155 239.086 427.994 237.464L427.002 235.727C424.372 237.23 420.95 238.52 416.709 239.581L417.194 241.521ZM428.017 237.45C430.782 235.772 432.909 234.21 434.357 232.762L432.943 231.348C431.657 232.633 429.683 234.099 426.979 235.741L428.017 237.45ZM434.65 232.055V196.605H432.65V232.055H434.65ZM433.65 195.605H395.711V197.605H433.65V195.605ZM396.711 196.605V163.354H394.711V196.605H396.711ZM395.711 164.354H481.404V162.354H395.711V164.354ZM685.896 163.354H686.896V162.354H685.896V163.354ZM685.896 249.34L686.648 250L686.896 249.717V249.34H685.896ZM669.783 262.23L669.247 261.386L669.242 261.39L669.783 262.23ZM642.391 274.096L642.669 275.056L642.676 275.054L642.391 274.096ZM564.461 272.191L564.088 273.119L564.095 273.122L564.461 272.191ZM535.018 252.123L534.283 252.801L534.287 252.805L535.018 252.123ZM515.975 219.604L515.029 219.928L515.031 219.935L515.975 219.604ZM534.578 86.7422L535.317 87.4157L535.321 87.4116L534.578 86.7422ZM646.492 68.8711L646.039 69.7626L646.045 69.7655L646.492 68.8711ZM674.031 94.0664L673.167 94.5693L673.17 94.5751L674.031 94.0664ZM685.75 131.127V132.127H686.86L686.745 131.023L685.75 131.127ZM639.754 131.127L638.763 131.263L638.882 132.127H639.754V131.127ZM633.895 112.67L633.017 113.15L633.021 113.156L633.024 113.163L633.895 112.67ZM621.736 100.805L621.263 101.686L621.27 101.689L621.276 101.692L621.736 100.805ZM582.918 100.805L583.372 101.696L583.378 101.693L582.918 100.805ZM560.799 134.057L561.772 134.288L561.772 134.286L560.799 134.057ZM560.799 204.516L559.825 204.745L559.828 204.755L560.799 204.516ZM569.734 225.316L568.916 225.891L568.921 225.898L569.734 225.316ZM584.529 237.768L584.1 238.671L584.106 238.673L584.529 237.768ZM621.443 240.551L621.665 241.526L621.675 241.524L621.686 241.521L621.443 240.551ZM631.99 236.596L632.486 237.464L632.498 237.457L632.509 237.45L631.99 236.596ZM638.143 232.055L638.85 232.762L639.143 232.469V232.055H638.143ZM638.143 196.605H639.143V195.605H638.143V196.605ZM600.203 196.605H599.203V197.605H600.203V196.605ZM600.203 163.354V162.354H599.203V163.354H600.203ZM684.896 163.354V249.34H686.896V163.354H684.896ZM685.145 248.68C681.718 252.583 676.436 256.821 669.247 261.386L670.319 263.075C677.584 258.461 683.043 254.105 686.648 250L685.145 248.68ZM669.242 261.39C662.215 265.914 653.178 269.835 642.105 273.137L642.676 275.054C653.869 271.716 663.093 267.727 670.325 263.071L669.242 261.39ZM642.113 273.135C631.094 276.325 617.912 277.93 602.547 277.93V279.93C618.042 279.93 631.421 278.312 642.669 275.056L642.113 273.135ZM602.547 277.93C588.69 277.93 576.121 275.701 564.827 271.261L564.095 273.122C575.652 277.666 588.474 279.93 602.547 279.93V277.93ZM564.834 271.263C553.54 266.727 543.849 260.12 535.749 251.441L534.287 252.805C542.592 261.704 552.53 268.476 564.088 273.119L564.834 271.263ZM535.752 251.445C527.652 242.67 521.371 231.952 516.918 219.272L515.031 219.935C519.563 232.841 525.977 243.803 534.283 252.801L535.752 251.445ZM516.92 219.279C512.569 206.61 510.383 192.075 510.383 175.658H508.383C508.383 192.249 510.592 207.011 515.029 219.928L516.92 219.279ZM510.383 175.658V163.061H508.383V175.658H510.383ZM510.383 163.061C510.383 146.644 512.569 132.108 516.92 119.44L515.029 118.79C510.592 131.708 508.383 146.47 508.383 163.061H510.383ZM516.92 119.44C521.277 106.759 527.413 96.0909 535.317 87.4157L533.839 86.0687C525.727 94.9716 519.462 105.886 515.029 118.79L516.92 119.44ZM535.321 87.4116C543.23 78.635 552.629 71.9835 563.527 67.4507L562.759 65.604C551.586 70.2509 541.942 77.076 533.835 86.0728L535.321 87.4116ZM563.527 67.4507C574.426 62.9172 586.501 60.6426 599.764 60.6426V58.6426C586.269 58.6426 573.929 60.9579 562.759 65.604L563.527 67.4507ZM599.764 60.6426C618.709 60.6426 634.115 63.7044 646.039 69.7626L646.945 67.9796C634.651 61.7331 618.905 58.6426 599.764 58.6426V60.6426ZM646.045 69.7655C657.996 75.7412 667.024 84.0105 673.167 94.5693L674.896 93.5635C668.539 82.6379 659.207 74.1103 646.939 67.9767L646.045 69.7655ZM673.17 94.5751C679.436 105.179 683.304 117.391 684.755 131.231L686.745 131.023C685.267 116.933 681.322 104.438 674.892 93.5577L673.17 94.5751ZM685.75 130.127H639.754V132.127H685.75V130.127ZM640.745 130.991C639.754 123.762 637.768 117.484 634.765 112.177L633.024 113.163C635.88 118.208 637.8 124.234 638.763 131.263L640.745 130.991ZM634.772 112.19C631.844 106.839 627.645 102.742 622.197 99.9169L621.276 101.692C626.374 104.336 630.281 108.15 633.017 113.15L634.772 112.19ZM622.209 99.9237C616.744 96.9884 609.729 95.5566 601.229 95.5566V97.5566C609.525 97.5566 616.182 98.9569 621.263 101.686L622.209 99.9237ZM601.229 95.5566C594.346 95.5566 588.082 97.0043 582.458 99.9167L583.378 101.693C588.691 98.941 594.635 97.5566 601.229 97.5566V95.5566ZM582.464 99.9135C576.924 102.734 572.258 107.008 568.463 112.701L570.127 113.811C573.753 108.371 578.17 104.344 583.372 101.696L582.464 99.9135ZM568.463 112.701C564.67 118.39 561.799 125.441 559.825 133.828L561.772 134.286C563.705 126.071 566.498 119.255 570.127 113.811L568.463 112.701ZM559.826 133.825C557.85 142.123 556.869 151.774 556.869 162.768H558.869C558.869 151.886 559.841 142.397 561.772 134.288L559.826 133.825ZM556.869 162.768V175.658H558.869V162.768H556.869ZM556.869 175.658C556.869 186.652 557.85 196.351 559.825 204.745L561.772 204.287C559.841 196.078 558.869 186.539 558.869 175.658H556.869ZM559.828 204.755C561.901 213.147 564.923 220.201 568.916 225.891L570.553 224.742C566.733 219.299 563.798 212.486 561.77 204.276L559.828 204.755ZM568.921 225.898C572.924 231.502 577.987 235.764 584.1 238.671L584.959 236.864C579.158 234.107 574.358 230.068 570.548 224.735L568.921 225.898ZM584.106 238.673C590.317 241.579 597.497 243.016 605.623 243.016V241.016C597.733 241.016 590.851 239.621 584.953 236.862L584.106 238.673ZM605.623 243.016C611.919 243.016 617.272 242.524 621.665 241.526L621.222 239.576C617.021 240.53 611.827 241.016 605.623 241.016V243.016ZM621.686 241.521C626.039 240.433 629.648 239.086 632.486 237.464L631.494 235.727C628.864 237.23 625.442 238.52 621.201 239.581L621.686 241.521ZM632.509 237.45C635.274 235.772 637.401 234.21 638.85 232.762L637.435 231.348C636.15 232.633 634.176 234.099 631.471 235.741L632.509 237.45ZM639.143 232.055V196.605H637.143V232.055H639.143ZM638.143 195.605H600.203V197.605H638.143V195.605ZM601.203 196.605V163.354H599.203V196.605H601.203ZM600.203 164.354H685.896V162.354H600.203V164.354ZM835.311 62.7188V61.7188H834.311V62.7188H835.311ZM883.064 62.7188H884.064V61.7188H883.064V62.7188ZM872.518 244.652L871.668 244.125L871.665 244.13L872.518 244.652ZM757.088 270.287L756.667 271.194L756.669 271.195L757.088 270.287ZM727.791 244.652L726.941 245.18L726.945 245.185L727.791 244.652ZM717.244 62.7188V61.7188H716.244V62.7188H717.244ZM765.145 62.7188H766.145V61.7188H765.145V62.7188ZM769.246 225.316L768.34 225.739L768.344 225.748L768.349 225.758L769.246 225.316ZM781.404 238.061L780.944 238.948L780.951 238.952L780.957 238.955L781.404 238.061ZM819.344 238.061L819.798 238.952L819.804 238.948L819.344 238.061ZM831.209 225.316L830.303 224.894L830.3 224.9L831.209 225.316ZM835.311 63.7188H883.064V61.7188H835.311V63.7188ZM882.064 62.7188V202.758H884.064V62.7188H882.064ZM882.064 202.758C882.064 219.219 878.579 232.99 871.668 244.125L873.367 245.18C880.518 233.659 884.064 219.5 884.064 202.758H882.064ZM871.665 244.13C864.837 255.285 855.322 263.699 843.092 269.38L843.935 271.194C856.51 265.352 866.331 256.676 873.37 245.174L871.665 244.13ZM843.092 269.38C830.845 275.07 816.638 277.93 800.447 277.93V279.93C816.874 279.93 831.378 277.028 843.935 271.194L843.092 269.38ZM800.447 277.93C784.158 277.93 769.852 275.07 757.507 269.379L756.669 271.195C769.323 277.028 783.924 279.93 800.447 279.93V277.93ZM757.509 269.38C745.278 263.698 735.661 255.281 728.637 244.12L726.945 245.185C734.179 256.68 744.093 265.353 756.667 271.194L757.509 269.38ZM728.641 244.125C721.729 232.99 718.244 219.219 718.244 202.758H716.244C716.244 219.5 719.79 233.659 726.941 245.18L728.641 244.125ZM718.244 202.758V62.7188H716.244V202.758H718.244ZM717.244 63.7188H765.145V61.7188H717.244V63.7188ZM764.145 62.7188V202.758H766.145V62.7188H764.145ZM764.145 202.758C764.145 212.027 765.523 219.704 768.34 225.739L770.152 224.894C767.5 219.21 766.145 211.848 766.145 202.758H764.145ZM768.349 225.758C771.267 231.695 775.465 236.107 780.944 238.948L781.865 237.173C776.796 234.545 772.889 230.462 770.144 224.875L768.349 225.758ZM780.957 238.955C786.401 241.677 792.909 243.016 800.447 243.016V241.016C793.141 241.016 786.955 239.718 781.852 237.166L780.957 238.955ZM800.447 243.016C807.984 243.016 814.448 241.677 819.798 238.952L818.89 237.17C813.888 239.717 807.754 241.016 800.447 241.016V243.016ZM819.804 238.948C825.289 236.104 829.395 231.683 832.118 225.733L830.3 224.9C827.749 230.474 823.945 234.548 818.883 237.173L819.804 238.948ZM832.115 225.739C834.932 219.704 836.311 212.027 836.311 202.758H834.311C834.311 211.848 832.955 219.21 830.303 224.894L832.115 225.739ZM836.311 202.758V62.7188H834.311V202.758H836.311Z" fill="black"/>
<path d="M481.404 163.354H482.404V162.354H481.404V163.354ZM481.404 249.34L482.156 250L482.404 249.717V249.34H481.404ZM465.291 262.23L464.755 261.386L464.75 261.39L465.291 262.23ZM437.898 274.096L438.176 275.056L438.184 275.054L437.898 274.096ZM359.969 272.191L359.596 273.119L359.603 273.122L359.969 272.191ZM330.525 252.123L329.791 252.801L329.794 252.805L330.525 252.123ZM311.482 219.604L310.537 219.928L310.539 219.935L311.482 219.604ZM330.086 86.7422L330.825 87.4157L330.829 87.4116L330.086 86.7422ZM442 68.8711L441.547 69.7626L441.553 69.7655L442 68.8711ZM469.539 94.0664L468.675 94.5693L468.678 94.5751L469.539 94.0664ZM481.258 131.127V132.127H482.368L482.252 131.023L481.258 131.127ZM435.262 131.127L434.271 131.263L434.389 132.127H435.262V131.127ZM429.402 112.67L428.525 113.15L428.529 113.156L428.532 113.163L429.402 112.67ZM417.244 100.805L416.771 101.686L416.777 101.689L416.784 101.692L417.244 100.805ZM378.426 100.805L378.879 101.696L378.886 101.693L378.426 100.805ZM356.307 134.057L357.279 134.288L357.28 134.286L356.307 134.057ZM356.307 204.516L355.333 204.745L355.336 204.755L356.307 204.516ZM365.242 225.316L364.424 225.891L364.428 225.898L365.242 225.316ZM380.037 237.768L379.608 238.671L379.613 238.673L380.037 237.768ZM416.951 240.551L417.173 241.526L417.183 241.524L417.194 241.521L416.951 240.551ZM427.498 236.596L427.994 237.464L428.006 237.457L428.017 237.45L427.498 236.596ZM433.65 232.055L434.357 232.762L434.65 232.469V232.055H433.65ZM433.65 196.605H434.65V195.605H433.65V196.605ZM395.711 196.605H394.711V197.605H395.711V196.605ZM395.711 163.354V162.354H394.711V163.354H395.711ZM480.404 163.354V249.34H482.404V163.354H480.404ZM480.653 248.68C477.226 252.583 471.944 256.821 464.755 261.386L465.827 263.075C473.092 258.461 478.551 254.105 482.156 250L480.653 248.68ZM464.75 261.39C457.723 265.914 448.686 269.835 437.613 273.137L438.184 275.054C449.376 271.716 458.601 267.727 465.832 263.071L464.75 261.39ZM437.62 273.135C426.602 276.325 413.419 277.93 398.055 277.93V279.93C413.549 279.93 426.929 278.312 438.176 275.056L437.62 273.135ZM398.055 277.93C384.198 277.93 371.629 275.701 360.335 271.261L359.603 273.122C371.16 277.666 383.982 279.93 398.055 279.93V277.93ZM360.342 271.263C349.048 266.727 339.357 260.12 331.256 251.441L329.794 252.805C338.1 261.704 348.038 268.476 359.596 273.119L360.342 271.263ZM331.26 251.445C323.16 242.67 316.878 231.952 312.426 219.272L310.539 219.935C315.071 232.841 321.484 243.803 329.791 252.801L331.26 251.445ZM312.428 219.279C308.076 206.61 305.891 192.075 305.891 175.658H303.891C303.891 192.249 306.099 207.011 310.537 219.928L312.428 219.279ZM305.891 175.658V163.061H303.891V175.658H305.891ZM305.891 163.061C305.891 146.644 308.076 132.108 312.428 119.44L310.537 118.79C306.099 131.708 303.891 146.47 303.891 163.061H305.891ZM312.428 119.44C316.784 106.759 322.921 96.0909 330.825 87.4157L329.347 86.0687C321.235 94.9716 314.969 105.886 310.537 118.79L312.428 119.44ZM330.829 87.4116C338.737 78.635 348.136 71.9835 359.034 67.4507L358.266 65.604C347.094 70.2509 337.45 77.076 329.343 86.0728L330.829 87.4116ZM359.034 67.4507C369.934 62.9172 382.009 60.6426 395.271 60.6426V58.6426C381.776 58.6426 369.437 60.9579 358.266 65.604L359.034 67.4507ZM395.271 60.6426C414.217 60.6426 429.623 63.7044 441.547 69.7626L442.453 67.9796C430.158 61.7331 414.412 58.6426 395.271 58.6426V60.6426ZM441.553 69.7655C453.504 75.7412 462.531 84.0105 468.675 94.5693L470.403 93.5635C464.047 82.6379 454.715 74.1103 442.447 67.9767L441.553 69.7655ZM468.678 94.5751C474.944 105.179 478.812 117.391 480.263 131.231L482.252 131.023C480.774 116.933 476.829 104.438 470.4 93.5577L468.678 94.5751ZM481.258 130.127H435.262V132.127H481.258V130.127ZM436.252 130.991C435.262 123.762 433.276 117.484 430.273 112.177L428.532 113.163C431.388 118.208 433.308 124.234 434.271 131.263L436.252 130.991ZM430.28 112.19C427.352 106.839 423.153 102.742 417.704 99.9169L416.784 101.692C421.882 104.336 425.789 108.15 428.525 113.15L430.28 112.19ZM417.717 99.9237C412.252 96.9884 405.237 95.5566 396.736 95.5566V97.5566C405.032 97.5566 411.69 98.9569 416.771 101.686L417.717 99.9237ZM396.736 95.5566C389.853 95.5566 383.59 97.0043 377.966 99.9167L378.886 101.693C384.199 98.941 390.143 97.5566 396.736 97.5566V95.5566ZM377.972 99.9135C372.432 102.734 367.766 107.008 363.971 112.701L365.635 113.811C369.261 108.371 373.678 104.344 378.879 101.696L377.972 99.9135ZM363.971 112.701C360.178 118.39 357.307 125.441 355.333 133.828L357.28 134.286C359.213 126.071 362.005 119.255 365.635 113.811L363.971 112.701ZM355.334 133.825C353.358 142.123 352.377 151.774 352.377 162.768H354.377C354.377 151.886 355.349 142.397 357.279 134.288L355.334 133.825ZM352.377 162.768V175.658H354.377V162.768H352.377ZM352.377 175.658C352.377 186.652 353.358 196.351 355.333 204.745L357.28 204.287C355.349 196.078 354.377 186.539 354.377 175.658H352.377ZM355.336 204.755C357.409 213.147 360.431 220.201 364.424 225.891L366.061 224.742C362.241 219.299 359.306 212.486 357.277 204.276L355.336 204.755ZM364.428 225.898C368.431 231.502 373.494 235.764 379.608 238.671L380.466 236.864C374.666 234.107 369.865 230.068 366.056 224.735L364.428 225.898ZM379.613 238.673C385.824 241.579 393.005 243.016 401.131 243.016V241.016C393.241 241.016 386.359 239.621 380.461 236.862L379.613 238.673ZM401.131 243.016C407.427 243.016 412.78 242.524 417.173 241.526L416.73 239.576C412.529 240.53 407.335 241.016 401.131 241.016V243.016ZM417.194 241.521C421.546 240.433 425.155 239.086 427.994 237.464L427.002 235.727C424.372 237.23 420.95 238.52 416.709 239.581L417.194 241.521ZM428.017 237.45C430.782 235.772 432.909 234.21 434.357 232.762L432.943 231.348C431.657 232.633 429.683 234.099 426.979 235.741L428.017 237.45ZM434.65 232.055V196.605H432.65V232.055H434.65ZM433.65 195.605H395.711V197.605H433.65V195.605ZM396.711 196.605V163.354H394.711V196.605H396.711ZM395.711 164.354H481.404V162.354H395.711V164.354ZM685.896 163.354H686.896V162.354H685.896V163.354ZM685.896 249.34L686.648 250L686.896 249.717V249.34H685.896ZM669.783 262.23L669.247 261.386L669.242 261.39L669.783 262.23ZM642.391 274.096L642.669 275.056L642.676 275.054L642.391 274.096ZM564.461 272.191L564.088 273.119L564.095 273.122L564.461 272.191ZM535.018 252.123L534.283 252.801L534.287 252.805L535.018 252.123ZM515.975 219.604L515.029 219.928L515.031 219.935L515.975 219.604ZM534.578 86.7422L535.317 87.4157L535.321 87.4116L534.578 86.7422ZM646.492 68.8711L646.039 69.7626L646.045 69.7655L646.492 68.8711ZM674.031 94.0664L673.167 94.5693L673.17 94.5751L674.031 94.0664ZM685.75 131.127V132.127H686.86L686.745 131.023L685.75 131.127ZM639.754 131.127L638.763 131.263L638.882 132.127H639.754V131.127ZM633.895 112.67L633.017 113.15L633.021 113.156L633.024 113.163L633.895 112.67ZM621.736 100.805L621.263 101.686L621.27 101.689L621.276 101.692L621.736 100.805ZM582.918 100.805L583.372 101.696L583.378 101.693L582.918 100.805ZM560.799 134.057L561.772 134.288L561.772 134.286L560.799 134.057ZM560.799 204.516L559.825 204.745L559.828 204.755L560.799 204.516ZM569.734 225.316L568.916 225.891L568.921 225.898L569.734 225.316ZM584.529 237.768L584.1 238.671L584.106 238.673L584.529 237.768ZM621.443 240.551L621.665 241.526L621.675 241.524L621.686 241.521L621.443 240.551ZM631.99 236.596L632.486 237.464L632.498 237.457L632.509 237.45L631.99 236.596ZM638.143 232.055L638.85 232.762L639.143 232.469V232.055H638.143ZM638.143 196.605H639.143V195.605H638.143V196.605ZM600.203 196.605H599.203V197.605H600.203V196.605ZM600.203 163.354V162.354H599.203V163.354H600.203ZM684.896 163.354V249.34H686.896V163.354H684.896ZM685.145 248.68C681.718 252.583 676.436 256.821 669.247 261.386L670.319 263.075C677.584 258.461 683.043 254.105 686.648 250L685.145 248.68ZM669.242 261.39C662.215 265.914 653.178 269.835 642.105 273.137L642.676 275.054C653.869 271.716 663.093 267.727 670.325 263.071L669.242 261.39ZM642.113 273.135C631.094 276.325 617.912 277.93 602.547 277.93V279.93C618.042 279.93 631.421 278.312 642.669 275.056L642.113 273.135ZM602.547 277.93C588.69 277.93 576.121 275.701 564.827 271.261L564.095 273.122C575.652 277.666 588.474 279.93 602.547 279.93V277.93ZM564.834 271.263C553.54 266.727 543.849 260.12 535.749 251.441L534.287 252.805C542.592 261.704 552.53 268.476 564.088 273.119L564.834 271.263ZM535.752 251.445C527.652 242.67 521.371 231.952 516.918 219.272L515.031 219.935C519.563 232.841 525.977 243.803 534.283 252.801L535.752 251.445ZM516.92 219.279C512.569 206.61 510.383 192.075 510.383 175.658H508.383C508.383 192.249 510.592 207.011 515.029 219.928L516.92 219.279ZM510.383 175.658V163.061H508.383V175.658H510.383ZM510.383 163.061C510.383 146.644 512.569 132.108 516.92 119.44L515.029 118.79C510.592 131.708 508.383 146.47 508.383 163.061H510.383ZM516.92 119.44C521.277 106.759 527.413 96.0909 535.317 87.4157L533.839 86.0687C525.727 94.9716 519.462 105.886 515.029 118.79L516.92 119.44ZM535.321 87.4116C543.23 78.635 552.629 71.9835 563.527 67.4507L562.759 65.604C551.586 70.2509 541.942 77.076 533.835 86.0728L535.321 87.4116ZM563.527 67.4507C574.426 62.9172 586.501 60.6426 599.764 60.6426V58.6426C586.269 58.6426 573.929 60.9579 562.759 65.604L563.527 67.4507ZM599.764 60.6426C618.709 60.6426 634.115 63.7044 646.039 69.7626L646.945 67.9796C634.651 61.7331 618.905 58.6426 599.764 58.6426V60.6426ZM646.045 69.7655C657.996 75.7412 667.024 84.0105 673.167 94.5693L674.896 93.5635C668.539 82.6379 659.207 74.1103 646.939 67.9767L646.045 69.7655ZM673.17 94.5751C679.436 105.179 683.304 117.391 684.755 131.231L686.745 131.023C685.267 116.933 681.322 104.438 674.892 93.5577L673.17 94.5751ZM685.75 130.127H639.754V132.127H685.75V130.127ZM640.745 130.991C639.754 123.762 637.768 117.484 634.765 112.177L633.024 113.163C635.88 118.208 637.8 124.234 638.763 131.263L640.745 130.991ZM634.772 112.19C631.844 106.839 627.645 102.742 622.197 99.9169L621.276 101.692C626.374 104.336 630.281 108.15 633.017 113.15L634.772 112.19ZM622.209 99.9237C616.744 96.9884 609.729 95.5566 601.229 95.5566V97.5566C609.525 97.5566 616.182 98.9569 621.263 101.686L622.209 99.9237ZM601.229 95.5566C594.346 95.5566 588.082 97.0043 582.458 99.9167L583.378 101.693C588.691 98.941 594.635 97.5566 601.229 97.5566V95.5566ZM582.464 99.9135C576.924 102.734 572.258 107.008 568.463 112.701L570.127 113.811C573.753 108.371 578.17 104.344 583.372 101.696L582.464 99.9135ZM568.463 112.701C564.67 118.39 561.799 125.441 559.825 133.828L561.772 134.286C563.705 126.071 566.498 119.255 570.127 113.811L568.463 112.701ZM559.826 133.825C557.85 142.123 556.869 151.774 556.869 162.768H558.869C558.869 151.886 559.841 142.397 561.772 134.288L559.826 133.825ZM556.869 162.768V175.658H558.869V162.768H556.869ZM556.869 175.658C556.869 186.652 557.85 196.351 559.825 204.745L561.772 204.287C559.841 196.078 558.869 186.539 558.869 175.658H556.869ZM559.828 204.755C561.901 213.147 564.923 220.201 568.916 225.891L570.553 224.742C566.733 219.299 563.798 212.486 561.77 204.276L559.828 204.755ZM568.921 225.898C572.924 231.502 577.987 235.764 584.1 238.671L584.959 236.864C579.158 234.107 574.358 230.068 570.548 224.735L568.921 225.898ZM584.106 238.673C590.317 241.579 597.497 243.016 605.623 243.016V241.016C597.733 241.016 590.851 239.621 584.953 236.862L584.106 238.673ZM605.623 243.016C611.919 243.016 617.272 242.524 621.665 241.526L621.222 239.576C617.021 240.53 611.827 241.016 605.623 241.016V243.016ZM621.686 241.521C626.039 240.433 629.648 239.086 632.486 237.464L631.494 235.727C628.864 237.23 625.442 238.52 621.201 239.581L621.686 241.521ZM632.509 237.45C635.274 235.772 637.401 234.21 638.85 232.762L637.435 231.348C636.15 232.633 634.176 234.099 631.471 235.741L632.509 237.45ZM639.143 232.055V196.605H637.143V232.055H639.143ZM638.143 195.605H600.203V197.605H638.143V195.605ZM601.203 196.605V163.354H599.203V196.605H601.203ZM600.203 164.354H685.896V162.354H600.203V164.354ZM835.311 62.7188V61.7188H834.311V62.7188H835.311ZM883.064 62.7188H884.064V61.7188H883.064V62.7188ZM872.518 244.652L871.668 244.125L871.665 244.13L872.518 244.652ZM757.088 270.287L756.667 271.194L756.669 271.195L757.088 270.287ZM727.791 244.652L726.941 245.18L726.945 245.185L727.791 244.652ZM717.244 62.7188V61.7188H716.244V62.7188H717.244ZM765.145 62.7188H766.145V61.7188H765.145V62.7188ZM769.246 225.316L768.34 225.739L768.344 225.748L768.349 225.758L769.246 225.316ZM781.404 238.061L780.944 238.948L780.951 238.952L780.957 238.955L781.404 238.061ZM819.344 238.061L819.798 238.952L819.804 238.948L819.344 238.061ZM831.209 225.316L830.303 224.894L830.3 224.9L831.209 225.316ZM835.311 63.7188H883.064V61.7188H835.311V63.7188ZM882.064 62.7188V202.758H884.064V62.7188H882.064ZM882.064 202.758C882.064 219.219 878.579 232.99 871.668 244.125L873.367 245.18C880.518 233.659 884.064 219.5 884.064 202.758H882.064ZM871.665 244.13C864.837 255.285 855.322 263.699 843.092 269.38L843.935 271.194C856.51 265.352 866.331 256.676 873.37 245.174L871.665 244.13ZM843.092 269.38C830.845 275.07 816.638 277.93 800.447 277.93V279.93C816.874 279.93 831.378 277.028 843.935 271.194L843.092 269.38ZM800.447 277.93C784.158 277.93 769.852 275.07 757.507 269.379L756.669 271.195C769.323 277.028 783.924 279.93 800.447 279.93V277.93ZM757.509 269.38C745.278 263.698 735.661 255.281 728.637 244.12L726.945 245.185C734.179 256.68 744.093 265.353 756.667 271.194L757.509 269.38ZM728.641 244.125C721.729 232.99 718.244 219.219 718.244 202.758H716.244C716.244 219.5 719.79 233.659 726.941 245.18L728.641 244.125ZM718.244 202.758V62.7188H716.244V202.758H718.244ZM717.244 63.7188H765.145V61.7188H717.244V63.7188ZM764.145 62.7188V202.758H766.145V62.7188H764.145ZM764.145 202.758C764.145 212.027 765.523 219.704 768.34 225.739L770.152 224.894C767.5 219.21 766.145 211.848 766.145 202.758H764.145ZM768.349 225.758C771.267 231.695 775.465 236.107 780.944 238.948L781.865 237.173C776.796 234.545 772.889 230.462 770.144 224.875L768.349 225.758ZM780.957 238.955C786.401 241.677 792.909 243.016 800.447 243.016V241.016C793.141 241.016 786.955 239.718 781.852 237.166L780.957 238.955ZM800.447 243.016C807.984 243.016 814.448 241.677 819.798 238.952L818.89 237.17C813.888 239.717 807.754 241.016 800.447 241.016V243.016ZM819.804 238.948C825.289 236.104 829.395 231.683 832.118 225.733L830.3 224.9C827.749 230.474 823.945 234.548 818.883 237.173L819.804 238.948ZM832.115 225.739C834.932 219.704 836.311 212.027 836.311 202.758H834.311C834.311 211.848 832.955 219.21 830.303 224.894L832.115 225.739ZM836.311 202.758V62.7188H834.311V202.758H836.311Z" fill="black" fill-opacity="0.2"/>
</svg>
